<?xml version="1.0" standalone="no"?>
<!DOCTYPE svg PUBLIC "-//W3C//DTD SVG 20010904//EN"
 "http://www.w3.org/TR/2001/REC-SVG-20010904/DTD/svg10.dtd">
<svg version="1.0" xmlns="http://www.w3.org/2000/svg"
 width="274.000000pt" height="276.000000pt" viewBox="0 0 274.000000 276.000000"
 preserveAspectRatio="xMidYMid meet">

<g transform="translate(0.000000,276.000000) scale(0.100000,-0.100000)"
fill="#000000" stroke="none">
<path d="M1223 2636 c-90 -17 -163 -41 -234 -77 -63 -31 -82 -50 -77 -76 6
-30 37 -26 127 15 124 58 223 76 390 69 102 -3 154 -10 206 -27 219 -69 363
-207 420 -403 9 -31 19 -109 23 -173 6 -93 10 -119 24 -127 12 -8 21 -7 32 2
24 20 22 214 -2 307 -63 238 -242 405 -507 475 -103 27 -301 34 -402 15z"/>
<path d="M769 2388 c-50 -63 -102 -170 -124 -253 -22 -88 -22 -708 1 -763 27
-65 110 -132 164 -132 18 0 20 -6 20 -60 0 -33 -2 -60 -4 -60 -16 0 -174 64
-194 78 -13 10 -43 49 -65 87 -55 90 -103 118 -193 113 -111 -7 -175 -73 -182
-187 -3 -52 -9 -71 -28 -91 -93 -100 -59 -261 68 -315 53 -22 106 -19 184 11
49 18 79 24 106 20 37 -6 287 -94 300 -105 13 -11 -178 -71 -225 -71 -25 0
-66 10 -93 21 -89 40 -174 26 -238 -38 -75 -73 -74 -197 1 -275 20 -21 24 -33
19 -53 -11 -42 19 -126 56 -162 64 -62 147 -79 224 -44 42 19 66 44 117 126
25 38 46 57 92 81 53 27 60 34 60 60 0 37 -25 42 -86 16 -62 -27 -103 -64
-139 -127 -40 -70 -72 -95 -122 -95 -97 0 -154 90 -114 182 5 11 1 23 -15 35
-70 56 -87 97 -66 160 14 43 66 83 107 83 15 0 58 -11 94 -25 37 -14 83 -25
104 -25 20 0 109 24 197 54 l160 54 110 -43 c61 -24 132 -49 158 -56 l47 -13
-167 -59 c-93 -33 -174 -64 -180 -69 -19 -15 -16 -46 6 -57 14 -8 66 7 230 64
116 41 220 75 231 75 35 0 624 -212 657 -236 17 -13 45 -48 62 -77 36 -63 64
-91 113 -112 73 -30 154 -12 216 48 37 36 67 120 56 162 -5 20 -1 32 19 53 75
78 76 202 1 275 -64 64 -149 78 -238 38 -71 -31 -120 -27 -267 24 -71 24 -134
47 -139 50 -4 3 7 28 25 55 34 51 55 122 55 190 l0 38 106 39 c123 44 169 79
217 161 39 67 88 98 141 88 77 -15 122 -92 96 -164 -12 -35 -12 -37 23 -66 44
-39 57 -65 57 -115 0 -50 -37 -96 -87 -110 -29 -8 -48 -6 -106 14 -97 34 -150
32 -276 -11 -117 -40 -131 -48 -131 -75 0 -41 32 -40 151 1 63 22 124 40 136
40 13 0 52 -11 89 -25 79 -30 134 -31 189 -6 122 56 152 213 61 311 -19 20
-25 39 -28 91 -7 114 -71 180 -182 187 -90 5 -138 -23 -193 -113 -22 -38 -52
-77 -65 -87 -20 -14 -178 -78 -194 -78 -2 0 -4 27 -4 60 0 54 2 60 20 60 54 0
137 67 164 132 23 55 23 360 0 379 -11 9 -20 10 -32 2 -14 -8 -18 -35 -22
-174 -4 -140 -8 -169 -25 -197 -23 -38 -87 -72 -136 -72 -55 0 -107 -19 -145
-52 -49 -43 -64 -78 -64 -147 0 -64 -8 -74 -77 -95 -20 -7 -23 -4 -23 23 0 42
-33 75 -60 61 -16 -8 -20 -21 -20 -60 l0 -50 -34 0 c-19 0 -41 -3 -50 -6 -13
-5 -16 2 -16 34 0 38 -19 72 -40 72 -21 0 -40 -34 -40 -72 0 -32 -3 -39 -16
-34 -9 3 -31 6 -50 6 l-34 0 0 50 c0 39 -4 52 -20 60 -27 14 -60 -19 -60 -61
0 -27 -3 -30 -22 -24 -69 21 -73 26 -79 100 -6 81 -15 101 -63 143 -38 33 -90
52 -145 52 -49 0 -113 34 -136 72 -19 31 -20 55 -23 332 -3 246 0 314 13 380
19 96 63 190 117 251 47 53 49 88 6 93 -22 3 -34 -6 -69 -50z m-314 -1082 c12
-8 36 -39 53 -69 45 -80 94 -116 214 -160 l105 -38 6 -69 c3 -42 15 -89 30
-120 13 -27 21 -50 17 -50 -4 0 -78 25 -166 55 -184 63 -225 67 -331 30 -58
-20 -77 -22 -106 -14 -50 14 -87 60 -87 110 0 51 13 76 58 115 34 30 35 32 23
63 -46 109 84 213 184 147z m511 -117 c28 -29 29 -35 34 -146 4 -94 8 -118 22
-126 19 -12 48 6 48 29 0 8 1 14 3 14 1 0 22 -6 47 -14 41 -12 46 -17 51 -51
12 -74 79 -81 79 -9 0 29 3 35 16 30 9 -3 31 -6 50 -6 31 0 34 -3 34 -29 0
-46 10 -61 40 -61 30 0 40 15 40 61 0 26 3 29 34 29 19 0 41 3 50 6 13 5 16
-1 16 -30 0 -72 67 -65 79 9 5 34 10 39 51 51 25 8 46 14 46 14 1 0 4 -9 7
-20 7 -26 33 -36 52 -20 11 9 15 35 15 100 0 113 7 144 38 175 48 48 52 39 52
-122 0 -124 -4 -155 -19 -190 -41 -89 -176 -182 -316 -218 -77 -19 -221 -19
-298 1 -131 34 -263 128 -307 218 -17 37 -20 62 -20 189 0 163 4 171 56 116z
m1004 -549 c96 -33 191 -60 212 -60 21 0 67 11 104 25 36 14 78 25 93 25 36 0
89 -35 101 -66 24 -62 2 -139 -46 -165 -29 -15 -36 -33 -24 -65 14 -35 12 -61
-5 -98 -20 -41 -63 -66 -115 -66 -48 0 -86 32 -132 112 -15 26 -44 60 -66 75
-23 17 -148 66 -308 122 l-270 95 81 27 c79 27 169 72 180 90 9 13 3 14 195
-51z"/>
<path d="M911 1850 c-67 -16 -124 -79 -136 -150 -9 -53 17 -141 55 -184 49
-55 112 -80 206 -80 70 -1 88 3 140 29 101 52 150 165 124 289 -6 30 -20 66
-31 80 -20 26 -21 26 -172 25 -84 -1 -167 -5 -186 -9z"/>
<path d="M1511 1834 c-26 -33 -45 -125 -36 -181 14 -93 55 -152 133 -190 48
-24 69 -28 137 -27 134 1 218 57 251 169 18 66 12 120 -19 166 -52 76 -95 88
-299 89 -145 0 -147 0 -167 -26z"/>
<path d="M1293 1477 c-79 -81 -93 -115 -69 -170 18 -45 56 -70 101 -67 44 2
86 2 130 0 45 -3 83 22 101 67 23 54 10 87 -68 169 -93 97 -102 97 -195 1z"/>
</g>
</svg>
